<svg xmlns="http://www.w3.org/2000/svg" viewBox="0 0 100 100" width="100%" height="100%">
  <defs>
    <linearGradient id="bgGradient" x1="0%" y1="0%" x2="100%" y2="100%">
      <stop offset="0%" stop-color="#228BE6" /> <!-- Blue -->
      <stop offset="100%" stop-color="#15AABF" /> <!-- Cyan -->
    </linearGradient>
    <filter id="glow" x="-20%" y="-20%" width="140%" height="140%">
      <feGaussianBlur stdDeviation="3" result="blur" />
      <feComposite in="SourceGraphic" in2="blur" operator="over" />
    </filter>
  </defs>

  <!-- Background -->
  <rect x="2" y="2" width="96" height="96" rx="22" fill="url(#bgGradient)" />

  <!-- Code Icon -->
  <g transform="translate(14, 12) translate(-12, -10) scale(4)" fill="none" stroke="#FFFFFF" stroke-width="2" stroke-linecap="round" stroke-linejoin="round" filter="url(#glow)">
    <path d="M15.5 13a3.5 3.5 0 0 0 -3.5 3.5v1a3.5 3.5 0 0 0 7 0v-1.8" />
    <path d="M8.5 13a3.5 3.5 0 0 1 3.5 3.5v1a3.5 3.5 0 0 1 -7 0v-1.8" />
    <path d="M17.5 16a3.5 3.5 0 0 0 0 -7h-.5" />
    <path d="M19 9.3v-2.8a3.5 3.5 0 0 0 -7 0" />
    <path d="M6.5 16a3.5 3.5 0 0 1 0 -7h.5" />
    <path d="M5 9.3v-2.8a3.5 3.5 0 0 1 7 0v10" />
  </g>
</svg>